<svg width="246" height="65" viewBox="0 0 246 65" fill="none" xmlns="http://www.w3.org/2000/svg">
<path d="M3.728 50C2.78933 50 2 49.68 1.36 49.04C0.72 48.4 0.4 47.6107 0.4 46.672V3.344C0.4 2.36266 0.72 1.57333 1.36 0.975998C2 0.335999 2.78933 0.0159988 3.728 0.0159988H15.248C18.448 0.0159988 21.2853 0.698666 23.76 2.064C26.2347 3.38666 28.1547 5.22133 29.52 7.568C30.928 9.91466 31.632 12.6453 31.632 15.76C31.632 18.6613 30.928 21.2427 29.52 23.504C28.1547 25.7653 26.2347 27.536 23.76 28.816C21.2853 30.096 18.448 30.736 15.248 30.736H7.056V46.672C7.056 47.6107 6.736 48.4 6.096 49.04C5.49867 49.68 4.70933 50 3.728 50ZM30.288 50C29.6907 50 29.136 49.872 28.624 49.616C28.1547 49.36 27.7493 48.9547 27.408 48.4L15.888 29.84L22.352 27.984L32.848 44.88C33.616 46.1173 33.7227 47.2907 33.168 48.4C32.6133 49.4667 31.6533 50 30.288 50ZM7.056 24.592H15.248C17.2107 24.592 18.9387 24.2293 20.432 23.504C21.9253 22.736 23.0987 21.6907 23.952 20.368C24.8053 19.0027 25.232 17.4667 25.232 15.76C25.232 13.8827 24.8053 12.2187 23.952 10.768C23.0987 9.31733 21.9253 8.18667 20.432 7.376C18.9387 6.56533 17.2107 6.16 15.248 6.16H7.056V24.592ZM56.6455 50.256C53.1042 50.256 49.9468 49.5093 47.1735 48.016C44.4428 46.48 42.2882 44.3893 40.7095 41.744C39.1735 39.056 38.4055 35.984 38.4055 32.528C38.4055 29.0293 39.1308 25.9573 40.5815 23.312C42.0748 20.624 44.1228 18.5333 46.7255 17.04C49.3282 15.504 52.3148 14.736 55.6855 14.736C59.0135 14.736 61.8722 15.4827 64.2615 16.976C66.6508 18.4267 68.4642 20.4533 69.7015 23.056C70.9815 25.616 71.6215 28.5813 71.6215 31.952C71.6215 32.7627 71.3442 33.4453 70.7895 34C70.2348 34.512 69.5308 34.768 68.6775 34.768H42.8855V29.648H68.4855L65.8615 31.44C65.8188 29.3067 65.3922 27.408 64.5815 25.744C63.7708 24.0373 62.6188 22.6933 61.1255 21.712C59.6322 20.7307 57.8188 20.24 55.6855 20.24C53.2535 20.24 51.1628 20.7733 49.4135 21.84C47.7068 22.9067 46.4055 24.3787 45.5095 26.256C44.6135 28.0907 44.1655 30.1813 44.1655 32.528C44.1655 34.8747 44.6988 36.9653 45.7655 38.8C46.8322 40.6347 48.3042 42.0853 50.1815 43.152C52.0588 44.2187 54.2135 44.752 56.6455 44.752C57.9682 44.752 59.3122 44.5173 60.6775 44.048C62.0855 43.536 63.2162 42.96 64.0695 42.32C64.7095 41.8507 65.3922 41.616 66.1175 41.616C66.8855 41.5733 67.5468 41.7867 68.1015 42.256C68.8268 42.896 69.2108 43.6 69.2535 44.368C69.2962 45.136 68.9548 45.7973 68.2295 46.352C66.7788 47.504 64.9655 48.4427 62.7895 49.168C60.6562 49.8933 58.6082 50.256 56.6455 50.256ZM83.2115 64.976C82.2728 64.976 81.4835 64.656 80.8435 64.016C80.2462 63.4187 79.9475 62.6507 79.9475 61.712V32.528C79.9902 29.1573 80.7795 26.128 82.3155 23.44C83.8515 20.752 85.9422 18.64 88.5875 17.104C91.2328 15.5253 94.2195 14.736 97.5475 14.736C100.918 14.736 103.926 15.5253 106.572 17.104C109.217 18.64 111.308 20.752 112.844 23.44C114.422 26.128 115.212 29.1573 115.212 32.528C115.212 35.8987 114.486 38.928 113.036 41.616C111.628 44.2613 109.686 46.3733 107.212 47.952C104.737 49.488 101.942 50.256 98.8275 50.256C96.3102 50.256 93.9848 49.744 91.8515 48.72C89.7608 47.6533 87.9688 46.224 86.4755 44.432V61.712C86.4755 62.6507 86.1768 63.4187 85.5795 64.016C84.9822 64.656 84.1928 64.976 83.2115 64.976ZM97.5475 44.496C99.7235 44.496 101.665 43.984 103.372 42.96C105.078 41.8933 106.422 40.464 107.404 38.672C108.428 36.8373 108.94 34.7893 108.94 32.528C108.94 30.224 108.428 28.176 107.404 26.384C106.422 24.5493 105.078 23.12 103.372 22.096C101.665 21.0293 99.7235 20.496 97.5475 20.496C95.4142 20.496 93.4728 21.0293 91.7235 22.096C90.0168 23.12 88.6728 24.5493 87.6915 26.384C86.7102 28.176 86.2195 30.224 86.2195 32.528C86.2195 34.7893 86.7102 36.8373 87.6915 38.672C88.6728 40.464 90.0168 41.8933 91.7235 42.96C93.4728 43.984 95.4142 44.496 97.5475 44.496ZM128.084 28.112C128.084 25.552 128.702 23.2693 129.94 21.264C131.22 19.216 132.926 17.5947 135.06 16.4C137.193 15.2053 139.54 14.608 142.1 14.608C144.66 14.608 146.558 15.0347 147.796 15.888C149.076 16.6987 149.566 17.68 149.268 18.832C149.14 19.4293 148.884 19.8987 148.5 20.24C148.158 20.5387 147.753 20.7307 147.284 20.816C146.814 20.9013 146.302 20.88 145.748 20.752C143.017 20.1973 140.564 20.1547 138.388 20.624C136.212 21.0933 134.484 21.968 133.204 23.248C131.966 24.528 131.348 26.1493 131.348 28.112H128.084ZM128.148 50C127.124 50 126.334 49.744 125.78 49.232C125.225 48.6773 124.948 47.8667 124.948 46.8V18.192C124.948 17.168 125.225 16.3787 125.78 15.824C126.334 15.2693 127.124 14.992 128.148 14.992C129.214 14.992 130.004 15.2693 130.516 15.824C131.07 16.336 131.348 17.1253 131.348 18.192V46.8C131.348 47.824 131.07 48.6133 130.516 49.168C130.004 49.7227 129.214 50 128.148 50ZM159.977 50C159.038 50 158.249 49.7013 157.609 49.104C157.011 48.464 156.713 47.6747 156.713 46.736V18.256C156.713 17.2747 157.011 16.4853 157.609 15.888C158.249 15.2907 159.038 14.992 159.977 14.992C160.958 14.992 161.747 15.2907 162.345 15.888C162.942 16.4853 163.241 17.2747 163.241 18.256V46.736C163.241 47.6747 162.942 48.464 162.345 49.104C161.747 49.7013 160.958 50 159.977 50ZM159.977 9.296C158.825 9.296 157.822 8.89066 156.969 8.08C156.158 7.22667 155.753 6.224 155.753 5.072C155.753 3.92 156.158 2.93866 156.969 2.128C157.822 1.27467 158.825 0.848 159.977 0.848C161.129 0.848 162.11 1.27467 162.921 2.128C163.774 2.93866 164.201 3.92 164.201 5.072C164.201 6.224 163.774 7.22667 162.921 8.08C162.11 8.89066 161.129 9.296 159.977 9.296ZM191.257 50.256C187.844 50.256 184.793 49.488 182.105 47.952C179.46 46.3733 177.369 44.2613 175.833 41.616C174.34 38.928 173.593 35.8987 173.593 32.528C173.593 29.072 174.34 26 175.833 23.312C177.326 20.624 179.374 18.5333 181.977 17.04C184.58 15.504 187.566 14.736 190.937 14.736C193.454 14.736 195.758 15.2267 197.849 16.208C199.94 17.1467 201.817 18.576 203.481 20.496C204.078 21.1787 204.292 21.8827 204.121 22.608C203.95 23.3333 203.481 23.9733 202.713 24.528C202.116 24.9547 201.454 25.104 200.729 24.976C200.004 24.8053 199.342 24.4213 198.745 23.824C196.654 21.6053 194.052 20.496 190.937 20.496C188.761 20.496 186.841 21.008 185.177 22.032C183.513 23.0133 182.212 24.4 181.273 26.192C180.334 27.984 179.865 30.096 179.865 32.528C179.865 34.832 180.334 36.88 181.273 38.672C182.254 40.464 183.598 41.8933 185.305 42.96C187.012 43.984 188.996 44.496 191.257 44.496C192.75 44.496 194.052 44.3253 195.161 43.984C196.313 43.6 197.358 43.024 198.297 42.256C198.98 41.7013 199.684 41.4027 200.409 41.36C201.134 41.2747 201.774 41.4667 202.329 41.936C203.054 42.5333 203.46 43.216 203.545 43.984C203.63 44.7093 203.374 45.3707 202.777 45.968C199.705 48.8267 195.865 50.256 191.257 50.256ZM230.271 50.256C226.729 50.256 223.572 49.5093 220.799 48.016C218.068 46.48 215.913 44.3893 214.335 41.744C212.799 39.056 212.031 35.984 212.031 32.528C212.031 29.0293 212.756 25.9573 214.207 23.312C215.7 20.624 217.748 18.5333 220.351 17.04C222.953 15.504 225.94 14.736 229.311 14.736C232.639 14.736 235.497 15.4827 237.887 16.976C240.276 18.4267 242.089 20.4533 243.326 23.056C244.607 25.616 245.247 28.5813 245.247 31.952C245.247 32.7627 244.969 33.4453 244.415 34C243.86 34.512 243.156 34.768 242.303 34.768H216.51V29.648H242.111L239.487 31.44C239.444 29.3067 239.017 27.408 238.207 25.744C237.396 24.0373 236.244 22.6933 234.751 21.712C233.257 20.7307 231.444 20.24 229.311 20.24C226.879 20.24 224.788 20.7733 223.039 21.84C221.332 22.9067 220.031 24.3787 219.135 26.256C218.239 28.0907 217.791 30.1813 217.791 32.528C217.791 34.8747 218.324 36.9653 219.391 38.8C220.457 40.6347 221.929 42.0853 223.807 43.152C225.684 44.2187 227.839 44.752 230.271 44.752C231.593 44.752 232.937 44.5173 234.303 44.048C235.711 43.536 236.841 42.96 237.695 42.32C238.335 41.8507 239.017 41.616 239.743 41.616C240.511 41.5733 241.172 41.7867 241.727 42.256C242.452 42.896 242.836 43.6 242.879 44.368C242.921 45.136 242.58 45.7973 241.854 46.352C240.404 47.504 238.591 48.4427 236.415 49.168C234.281 49.8933 232.233 50.256 230.271 50.256Z" fill="url(#paint0_linear_0_1)"/>
<defs>
<linearGradient id="paint0_linear_0_1" x1="-6" y1="119" x2="490" y2="119" gradientUnits="userSpaceOnUse">
<stop stop-color="#8FAEF1"/>
<stop offset="0.335" stop-color="#313E5A"/>
</linearGradient>
</defs>
</svg>
